<svg width="217" height="220" xmlns="http://www.w3.org/2000/svg" xmlns:xlink="http://www.w3.org/1999/xlink" xml:space="preserve" overflow="hidden"><defs><clipPath id="clip0"><rect x="0" y="250" width="217" height="220"/></clipPath></defs><g clip-path="url(#clip0)" transform="matrix(1 0 0 1 0 -250)"><path d="M113.16 219.606C110.558 219.466 101.914 219.158 93.9969 218.934 66.6371 218.095 48.6769 217.34 43.4456 216.808 42.0468 216.668 40.2004 216.277 39.3332 215.969 37.7666 215.382 36.3678 214.095 36.3678 213.227 36.3678 211.689 38.9136 208.5 41.3195 207.101L42.5783 206.373 50.7471 206.541C55.2232 206.653 70.2179 207.129 84.0656 207.632 97.9134 208.108 113.663 208.528 119.035 208.528 127.987 208.556 129.134 208.5 132.211 207.94 138.757 206.737 143.737 204.723 158.76 197.142 167.04 192.973 167.18 192.861 169.194 190.791L171.237 188.693 169.334 188.469C166.844 188.19 99.2562 185.168 70.3578 184.049 62.8884 183.769 61.6295 183.769 58.804 184.189 51.8941 185.224 47.3621 187.182 39.7528 192.47 33.5703 196.75 24.5623 202.569 22.4362 203.66 18.7994 205.506 14.5192 205.814 11.1062 204.499 6.74204 202.821 2.8255 196.666 1.11901 188.665 0.58748 186.231 0.475579 184.553 0.279753 174.705-0.279753 148.213 0.111901 97.214 0.895208 93.7731 1.62256 90.6958 4.39212 88.0941 7.24559 87.8983 8.64435 87.7864 8.95208 87.8703 9.73539 88.5417 11.4139 89.9404 11.4419 90.2482 11.7496 110.195 12.5609 163.04 12.8686 180.217 13.0365 181.979 13.3722 185.979 14.1275 187.434 15.9459 187.434 17.5964 187.434 19.4148 186.259 24.9539 181.643 27.7794 179.321 31.0805 176.692 32.3114 175.824 38.1023 171.74 41.795 166.788 43.7533 160.578 45.3759 155.514 45.3199 157.361 45.3199 101.103 45.3199 51.7262 45.236 44.2009 44.7324 44.2009 44.2009 44.2009 40.4242 47.6698 32.5072 55.447 23.779 63.9794 22.2683 65.1823 20.31 65.1823 18.2958 65.1544 15.5542 63.2241 14.5192 61.098 13.8198 59.6153 13.8757 57.9647 14.743 56.3142 15.4423 54.9714 35.1089 29.1222 43.3337 18.7434 47.1383 13.9597 48.9287 12.0294 51.7542 9.67944 54.8035 7.13369 57.0136 5.73493 60.5385 4.02844 66.3573 1.25889 71.3369 0.195827 78.6105 0.167852 83.2264 0.167852 85.0448 0.363678 110.502 3.58083 166.565 10.6865 180.804 12.5889 185.336 13.54 192.022 14.9668 198.904 17.8482 203.044 20.9814 209.842 26.1009 213.647 33.7661 215.186 45.4598 215.661 49.0406 215.605 133.498 215.13 136.659 214.57 140.324 212.892 142.926 210.262 144.212 207.464 145.583 203.912 145.499 201.394 143.989 199.548 142.87 198.512 141.583 197.757 139.457 197.002 137.386 197.002 137.778 197.813 89.6607 198.121 70.5816 198.317 53.6845 198.205 52.1179 197.505 41.0677 193.029 34.4655 184.497 31.9198 182.315 31.2763 179.321 30.8567 162.816 28.8425 119.454 23.4992 86.6673 20.4779 81.1282 21.2612 73.9666 22.2683 69.3507 26.1848 67.1406 33.1507 66.3014 35.7804 66.1335 41.3195 65.7419 75.1136 64.9865 143.569 64.9865 142.282 66.1895 147.122 67.6721 153.025 71.3929 158.228 76.2326 161.109 78.2468 162.34 82.0794 163.767 84.765 164.327 89.6607 165.334 136.044 168.859 182.119 171.768 199.52 172.859 201.562 173.027 203.24 173.586 208.919 175.489 208.639 180.356 202.401 188.413 198.456 193.477 192.973 197.645 186.595 200.443 182.371 202.317 148.185 215.046 144.296 216.193 134.057 219.27 125.329 220.221 113.16 219.606Z" fill="#FFFFFF" transform="matrix(1 0 0 -1.00052 0 470)"/><path d="M561.463 196.414C541.741 194.736 526.69 185.812 519.668 171.572 515.136 162.396 514.465 149.863 517.934 139.485 520.06 133.134 524.508 126.56 529.991 121.636 535.754 116.461 539.223 114.391 556.847 105.607 575.759 96.2069 581.661 92.738 585.914 88.5417 590.11 84.4293 592.236 79.0301 592.236 72.5678 592.236 66.2454 590.166 61.1539 585.802 56.7618 580.123 51.0269 573.129 48.3972 563.506 48.3972 555.84 48.3972 550.721 50.1876 546.497 54.3839 542.244 58.6082 540.09 64.0354 539.727 71.5607L539.559 74.6939 526.83 74.6939 514.101 74.6939 514.269 71.4208C514.801 61.5456 517.71 52.2858 522.522 45.0402 525.627 40.3683 531.726 35.025 536.817 32.4793 541.489 30.1294 547.588 28.3669 553.77 27.5556 557.687 27.0241 567.674 26.9681 571.954 27.4158 583.032 28.5627 591.872 31.5281 599.37 36.6196 612.546 45.4878 618.729 58.748 617.666 75.8969 617.134 84.4853 614.56 92.0386 609.945 98.5848 604.126 106.754 591.872 115.566 576.01 122.951 561.855 129.553 552.931 134.757 547.895 139.373 543.447 143.457 541.041 148.633 541.041 154.116 541.069 161.277 544.482 167.208 550.945 171.348 559.449 176.776 573.493 176.692 581.745 171.181 586.781 167.796 590.082 162.173 590.726 155.906L590.921 154.144 603.538 154.144 616.183 154.144 615.959 156.326C613.665 178.035 599.594 192.638 577.689 195.967 574.248 196.47 565.268 196.722 561.463 196.414Z" fill="#FFFFFF" transform="matrix(1 0 0 -1.00052 0 470)"/><path d="M359.062 195.211C358.671 194.036 315.841 29.6258 315.841 29.2621 315.841 28.8705 317.044 28.8145 327.171 28.8145L338.501 28.8145 338.752 29.4579C338.892 29.7936 341.634 40.6201 344.851 53.5167L350.67 76.932 374.729 76.876 398.787 76.7921 404.578 53.0131C407.767 39.9487 410.369 29.1502 410.369 29.0383 410.397 28.8984 416.104 28.8145 423.098 28.8145 430.092 28.8145 435.882 28.8984 435.938 29.0383 435.994 29.1502 426.203 66.6371 414.202 112.321L392.325 195.407 375.764 195.491C362.643 195.547 359.174 195.491 359.062 195.211ZM393.332 99.1163C393.332 98.8366 389.416 98.7527 374.729 98.7527 364.49 98.7527 356.125 98.8366 356.125 98.9765 356.125 99.0884 360.293 115.985 365.413 136.519L374.701 173.866 384.016 136.659C389.136 116.209 393.332 99.2842 393.332 99.1163Z" fill="#FFFFFF" transform="matrix(1 0 0 -1.00052 0 470)"/><path d="M719.859 182.483 719.943 171.908 732.196 171.824 744.422 171.768 744.422 112.041 744.422 52.3137 729.595 52.3137 714.768 52.3137 714.768 41.2635 714.768 30.2133 756.591 30.2133 798.414 30.2133 798.414 41.2635 798.414 52.3137 783.447 52.3137 768.48 52.3137 768.48 112.041 768.48 171.768 780.789 171.768 793.099 171.768 793.099 182.399 793.099 193.029 756.451 193.029 719.803 193.029 719.859 182.483Z" fill="#FFFFFF" transform="matrix(1 0 0 -1.00052 0 470)"/><path d="M891.851 182.119 891.851 171.209 913.672 171.209 935.493 171.209 935.493 100.012 935.493 28.8145 947.242 28.8145 958.992 28.8145 958.992 100.012 958.992 171.209 980.896 171.265 1002.77 171.348 1002.86 182.203 1002.91 193.029 947.382 193.029 891.851 193.029 891.851 182.119Z" fill="#FFFFFF" transform="matrix(1 0 0 -1.00052 0 470)"/><path d="M1090.48 111.621 1090.48 30.2133 1140.78 30.2692 1191.05 30.3532 1191.13 41.3474 1191.19 52.3137 1152.58 52.3137 1113.97 52.3137 1113.97 78.6105 1113.97 104.907 1146.79 104.963 1179.58 105.047 1179.58 115.818 1179.58 126.588 1146.79 126.672 1113.97 126.728 1113.97 149.528 1113.97 172.328 1151.27 172.384 1188.53 172.467 1188.61 182.762 1188.67 193.029 1139.57 193.029 1090.48 193.029 1090.48 111.621Z" fill="#FFFFFF" transform="matrix(1 0 0 -1.00052 0 470)"/><path d="M125.749 137.442C125.133 137.386 120.909 137.107 116.377 136.771 110.922 136.407 108.068 136.1 107.929 135.876 107.173 134.701 107.537 134.309 117.496 125.217 123.958 119.314 127.176 116.209 126.952 116.069 126.42 115.79 115.734 113.999 109.663 113.188 103.033 112.293 97.9973 111.761 89.7166 111.062 81.5758 110.39 81.0443 110.306 79.9253 109.551 78.2468 108.432 78.1908 108.068 78.1908 99.7877L78.1908 92.2624 79.142 91.4231 80.0932 90.5559 83.0585 90.7238C84.6811 90.8077 94.8361 91.7029 105.607 92.71 116.349 93.7171 125.553 94.5564 126.029 94.5564 126.56 94.5564 127.008 94.3605 127.231 93.9969 127.539 93.4933 126.644 92.4302 117.776 82.4711 112.405 76.4284 107.984 71.4208 107.984 71.3369 107.984 71.253 108.208 70.9173 108.488 70.5816 108.936 70.0221 109.076 69.9941 111.901 70.2459 126.364 71.5048 128.462 71.7845 130.98 72.9315 132.938 73.7987 134.141 75.0296 147.737 89.9404 153.053 95.7873 158.508 101.774 159.823 103.229 161.249 104.767 162.452 106.362 162.704 107.061 163.459 108.992 162.76 109.999 157.697 114.475 153.864 117.86 149.556 121.748 136.295 133.806L132.043 137.638 129.469 137.582C128.043 137.554 126.364 137.498 125.749 137.442Z" fill="#FFFFFF" transform="matrix(1 0 0 -1.00052 0 470)"/><path d="M1230.91 54.1321 1230.91 52.034 1234.69 52.034 1238.46 52.034 1238.46 41.5433 1238.46 31.0525 1241.12 31.0525 1243.78 31.0525 1243.78 41.5433 1243.78 52.034 1247.56 52.034 1251.33 52.034 1251.33 54.1321 1251.33 56.2303 1241.12 56.2303 1230.91 56.2303 1230.91 54.1321Z" fill="#FFFFFF" transform="matrix(1 0 0 -1.00052 0 470)"/><path d="M1254.41 43.6414 1254.41 31.0525 1256.93 31.0525 1259.45 31.0525 1259.47 40.9278 1259.5 50.7751 1260.15 48.1174C1260.51 46.6627 1261.52 42.2147 1262.41 38.2701L1264.01 31.0525 1266.61 31.0525C1269.1 31.0525 1269.24 31.0805 1269.38 31.696 1269.46 32.0317 1270.47 36.5357 1271.64 41.6831 1272.79 46.8306 1273.8 51.0828 1273.85 51.1667 1273.94 51.2227 1273.99 46.7467 1273.99 41.1796L1273.99 31.0525 1276.37 31.0525 1278.75 31.0525 1278.75 43.6414 1278.75 56.2303 1275 56.2303C1271.64 56.2303 1271.22 56.1743 1271.08 55.7547 1271.03 55.4749 1270.05 51.2786 1268.96 46.4389 1267.84 41.5992 1266.86 37.5428 1266.75 37.4029 1266.64 37.291 1266.22 38.6898 1265.8 40.4802 1265.38 42.2986 1264.4 46.5788 1263.59 50.0198L1262.16 56.2303 1258.27 56.2303 1254.41 56.2303 1254.41 43.6414Z" fill="#FFFFFF" transform="matrix(1 0 0 -1.00052 0 470)"/></g></svg>