<?xml version="1.0" encoding="UTF-8"?> <svg xmlns="http://www.w3.org/2000/svg" width="100" height="100" viewBox="0 0 100 100"><g id="fe72220f-f5f3-424c-98ef-e1293d78689f" data-name="ProjectWise"><path d="M61.92,36.56l.12,0-10.81,13h0l10,2.89L66,53.88l22.2-26.75.29-.3,10.4,2.74-5.8-18.85L63.07,20l10.17,2.85-.85,1ZM38.08,63.43l-.11,0L48.65,50.53l.14-.16L34,46.12l-22.42,27-.46-.08-10-2.64,5.8,18.85,30-9.26L26.74,77.17l.87-1Zm46-2.91-.48-.12-22.7-6.54-10.62-3-.41.49L40.5,62.69l32.11,9.44,1.09.27-6.81,8.09,30.05-9.26L91.12,52.39Zm-68.11-21,.5.1L49.2,49l.55.15.3-.35L59.5,37.31,27.39,27.87l-1.08-.28,6.8-8.09-30,9.26L8.89,47.61Z"></path></g></svg> 